PathFileType	4	(X/Y/Z)	C:\Users\Vitor Bertoli\OneDrive\Documents\Yolotestes\IMG_0214_Sports2D\IMG_0214_Sports2D_m_person00.trc
DataRate	CameraRate	NumFrames	NumMarkers	Units	OrigDataRate	OrigDataStartFrame	OrigNumFrames
120	120	12	22	m	120	316	633
Frame#	Time	Hip			RHip			RKnee			RAnkle			RBigToe			RSmallToe			RHeel			LHip			LKnee			LAnkle			LBigToe			LSmallToe			LHeel			Neck			Head			Nose			RShoulder			RElbow			RWrist			LShoulder			LElbow			LWrist		
		X1	Y1	Z1	X2	Y2	Z2	X3	Y3	Z3	X4	Y4	Z4	X5	Y5	Z5	X6	Y6	Z6	X7	Y7	Z7	X8	Y8	Z8	X9	Y9	Z9	X10	Y10	Z10	X11	Y11	Z11	X12	Y12	Z12	X13	Y13	Z13	X14	Y14	Z14	X15	Y15	Z15	X16	Y16	Z16	X17	Y17	Z17	X18	Y18	Z18	X19	Y19	Z19	X20	Y20	Z20	X21	Y21	Z21	X22	Y22	Z22
316	2.6333333333333333	4.3399416370960315	0.9324302166718589	0.0	4.284403446432782	0.948566137591619	0.0	4.181277503317339	0.49164746071856946	0.0	3.7211675012404966	0.3510560142752885	0.0	3.6412078977832203	0.13758706413103264	0.0	3.626080858054519	0.1732264961798596	0.0	3.65038772840165	0.3908875230591724	0.0	4.408364349194519	0.943285889141026	0.0	4.6118010536288425	0.6060972126449632	0.0	4.403862161345962	0.18275235137876528	0.0	4.576814703540301	0.05814590601499582	0.0	4.56137272501278	0.08245532752929136	0.0	4.336241473062204	0.13880267874425636	0.0	4.618384817779997	1.4708105150921562	0.0	4.836234036916154	1.609957908010575	0.0	4.798826646310187	1.4874037690923643	0.0	4.578795745891306	1.4332671611757508	0.0	4.396144356688557	1.1999028502487163	0.0	4.597853262495257	1.0402743499119258	0.0	4.529884040263535	1.469449197562157	0.0	4.285066100431653	1.3631382331155384	0.0	4.097851127811355	1.1745276997796057	0.0
317	2.6416666666666666	4.375543603542239	0.9356656046602521	0.0	4.32204380533222	0.9512043613523476	0.0	4.246733233505907	0.48937965219139634	0.0	3.7839883589985237	0.36083016582619226	0.0	3.699940926582649	0.14947453157203727	0.0	3.6864460684506697	0.18621224173390705	0.0	3.7134257469809953	0.40174150233876926	0.0	4.440665435949134	0.945834605301521	0.0	4.626549107281261	0.592710916672044	0.0	4.4124407827261996	0.17337454319062168	0.0	4.584236961697858	0.04619399420697528	0.0	4.568669659061646	0.07105925657016467	0.0	4.343974005416252	0.12994112497989482	0.0	4.657583577924173	1.4697031298261276	0.0	4.874371140146659	1.6080379383693701	0.0	4.836321438020826	1.4866579514420493	0.0	4.613180658331291	1.4338336816278063	0.0	4.413710052088833	1.2072216593767695	0.0	4.592901783210371	1.0231681766508804	0.0	4.572436767699324	1.4636299585241876	0.0	4.3267211046513845	1.3396336751951923	0.0	4.157226911097646	1.1410670412808546	0.0
318	2.65	4.410965814821717	0.9383070941792975	0.0	4.359735939169781	0.9530179642591131	0.0	4.313806994149681	0.48799443781537466	0.0	3.8494740261860585	0.3693747285577722	0.0	3.7625967657169994	0.1604565985849973	0.0	3.7504687890659487	0.19795748571023777	0.0	3.7787905018269847	0.41056637797287854	0.0	4.47199380606022	0.9476522624276184	0.0	4.6399000372146215	0.5792623242768675	0.0	4.418579185792302	0.164948849518996	0.0	4.58923497402683	0.03567136614778381	0.0	4.573678763847913	0.06096605986405038	0.0	4.349103908651913	0.12192492775654498	0.0	4.696179733263502	1.4676171492717662	0.0	4.912062091174916	1.6057722217484771	0.0	4.873674822249157	1.4854869461219893	0.0	4.6473557164321475	1.4336769688105835	0.0	4.4322730738040965	1.2145238378906462	0.0	4.585230645583833	1.0079615864829787	0.0	4.614995084611108	1.457059032619537	0.0	4.370671634564672	1.3154236129036418	0.0	4.221586711607096	1.1081979522333323	0.0
319	2.658333333333333	4.4461805508124455	0.9402414511843347	0.0	4.397522500976484	0.9538883010283072	0.0	4.382303217276463	0.48776586792121635	0.0	3.917506073985215	0.37668285441408034	0.0	3.8293635451338357	0.17029079935680252	0.0	3.818288710557846	0.20818970521307498	0.0	3.846362062733175	0.4173826373738381	0.0	4.50220826046932	0.948660523033109	0.0	4.652027978231729	0.5659110660139972	0.0	4.42260132708563	0.15751481430561498	0.0	4.5922784940084025	0.026741272759937665	0.0	4.576808457696372	0.05237313784042492	0.0	4.352028563368519	0.11482326019659758	0.0	4.734099919844841	1.4647011118074988	0.0	4.94920161756686	1.6033096902597372	0.0	4.910837314120322	1.4839842046447291	0.0	4.681390504096106	1.432940111052909	0.0	4.452062771562451	1.2218985225804797	0.0	4.575259453002422	0.9955797030862474	0.0	4.657331901990415	1.4499512585341365	0.0	4.416927171010694	1.2909173533280762	0.0	4.29081648027253	1.076695393785453	0.0
320	2.6666666666666665	4.481150341912361	0.9414542852446258	0.0	4.435433554711104	0.9537986510907648	0.0	4.451992772298479	0.488964151327255	0.0	3.9879259553620425	0.3827704212854248	0.0	3.9003641895123744	0.17868946949358833	0.0	3.890000238522331	0.2166376889973529	0.0	3.9160271018417485	0.4222579340967981	0.0	4.5312115641384505	0.9488850552540511	0.0	4.663074424164532	0.5528685687956949	0.0	4.424870493596983	0.15112012374237513	0.0	4.59377771975039	0.01942772080686082	0.0	4.578393651378764	0.04536580211499286	0.0	4.353161957263074	0.10872462904832214	0.0	4.771311324859279	1.4611329656696173	0.0	4.985733145345245	1.6008362919785364	0.0	4.9477171442184185	1.4822569491536175	0.0	4.7154053131121385	1.431792942034316	0.0	4.473252370265161	1.2294874735090946	0.0	4.563552572142523	0.9868606235938419	0.0	4.6992403242329885	1.4425647984295282	0.0	4.465337543100964	1.2665409220296941	0.0	4.364507090890258	1.0472997179003176	0.0
321	2.675	4.515827337193395	0.9420353335613556	0.0	4.473485517932296	0.9528526925451338	0.0	4.5226117880633225	0.4918547425443403	0.0	4.060550090272294	0.38765376729906426	0.0	3.9756451715995547	0.1853468457518555	0.0	3.965639875430045	0.2230177827041473	0.0	3.9876743258624403	0.42528809879145896	0.0	4.558944497164127	0.9484690216175341	0.0	4.673171416009242	0.540404302594595	0.0	4.425789762901802	0.14581420700736022	0.0	4.5940707940595855	0.013617214900236827	0.0	4.578703122422448	0.03989980007326817	0.0	4.35293468521948	0.10371552577825292	0.0	4.807826728274139	1.4571119881730588	0.0	5.021647858714575	1.5985749826400444	0.0	4.984211313462075	1.4804581907609533	0.0	4.749555617104189	1.430413695215792	0.0	4.495983058570868	1.2374948923821494	0.0	4.550836841416773	0.9824962374691201	0.0	4.740542334676372	1.4351916587167854	0.0	4.515551031894904	1.242772622014259	0.0	4.441842805068141	1.0207004058730154	0.0
322	2.683333333333333	4.550159529663523	0.9421300494264874	0.0	4.51168228487958	0.951238320325836	0.0	4.5938719098945064	0.4966737566094843	0.0	4.135169891099546	0.3913226806047009	0.0	4.055173463376029	0.1900130245367873	0.0	4.045163183064535	0.22707307931173665	0.0	4.061188413833697	0.42655979759244755	0.0	4.585394229126179	0.9476364022971796	0.0	4.68248487729687	0.528807781872358	0.0	4.425773211845172	0.14162761208795505	0.0	4.5934254436105375	0.00909166832514448	0.0	4.577960849327164	0.035811398150565554	0.0	4.351774848934664	0.09984666722704767	0.0	4.843699898511472	1.452844712948871	0.0	5.056966856663453	1.5967677179447948	0.0	5.020243840195716	1.4787810090172544	0.0	4.783988407884104	1.428967926628704	0.0	4.520355226539406	1.24615435845344	0.0	4.538006681547101	0.9829739309300412	0.0	4.781099439519366	1.4281106813199544	0.0	4.567048638673761	1.220139023031252	0.0	4.521613451867661	0.9974891493826554	0.0
323	2.6916666666666664	4.584105714900489	0.9418712797104088	0.0	4.5500163730121646	0.9491706060897854	0.0	4.665473175123861	0.5035870131647178	0.0	4.211524606166476	0.393737252626485	0.0	4.1388100454690155	0.1925714463474664	0.0	4.128408006728368	0.2286736360678583	0.0	4.13642239505091	0.4261098157975996	0.0	4.6106347527444935	0.946621462689551	0.0	4.691247998494375	0.5183272220127467	0.0	4.425211170330547	0.13855940456703447	0.0	4.592026532203917	0.005587100299869617	0.0	4.576346963215207	0.03287235127160945	0.0	4.350086849440797	0.09713402923381835	0.0	4.879024050146606	1.4485269716625766	0.0	5.0917275244940425	1.5956536936105177	0.0	5.0557998297240445	1.4774093526079322	0.0	4.818783997539687	1.427600194770589	0.0	4.54639473194174	1.2556931307414534	0.0	4.526079119293269	0.9885519976825516	0.0	4.820859876364908	1.4215093482076713	0.0	4.619341418713467	1.1991028063233489	0.0	4.602575002288972	0.9780895082654795	0.0
324	2.7	4.617666980858235	0.9413292145503762	0.0	4.588488219236117	0.9468329422736433	0.0	4.737100341847771	0.512660882269684	0.0	4.28930809541141	0.39485097143946685	0.0	4.226299031767925	0.1930777824450279	0.0	4.2150822538534145	0.22787586657871733	0.0	4.213192299064097	0.4239254219911524	0.0	4.634876889864312	0.9455956644375242	0.0	4.699754786067431	0.5091284009543809	0.0	4.424456735524105	0.13658826548802705	0.0	4.589973193055534	0.0028391312923516485	0.0	4.573993424073482	0.030839895181612644	0.0	4.348246411312889	0.09559505850039443	0.0	4.913930413425537	1.4443402864887942	0.0	5.125969105566756	1.5954397607470814	0.0	5.090942814646837	1.4764737585709105	0.0	4.853919311888252	1.4264494078713725	0.0	4.574023946129298	1.2663311888474214	0.0	4.516101432426139	0.9992547030311685	0.0	4.8598998177122725	1.4154557025567316	0.0	4.672172285192469	1.1799829615244706	0.0	4.683914642698723	0.9627846091457427	0.0
325	2.7083333333333335	4.6509316783539685	0.9405087999918135	0.0	4.627153564152585	0.9443382613048105	0.0	4.808407817107487	0.5238531745203248	0.0	4.368221699530279	0.39463377801698085	0.0	4.317295632996078	0.19172850157842689	0.0	4.304798039022317	0.22486803377004005	0.0	4.291310874258912	0.419974894723078	0.0	4.658502980957009	0.9446326563555598	0.0	4.708311153468422	0.5012852917730621	0.0	4.423833093118325	0.13570098798426264	0.0	4.587314748137483	0.0006165557290000074	0.0	4.571007113814445	0.02948034201940146	0.0	4.3466122760104335	0.0952652264346479	0.0	4.9485792562436215	1.4404646289496477	0.0	5.159725996061158	1.5962614536888613	0.0	5.1258044123739435	1.4760470103012682	0.0	4.889279121504762	1.42566721062804	0.0	4.603058962972947	1.2782798258512706	0.0	4.509053409943471	1.0148624236295323	0.0	4.8984174824024205	1.4099497396323861	0.0	4.725519338420659	1.1630375812378728	0.0	4.765277650219449	0.9519209304882379	0.0
326	2.716666666666667	4.684095642717764	0.9393930871390972	0.0	4.66614543005819	0.9417435951543873	0.0	4.879025375088518	0.5370095899655059	0.0	4.4480025844279165	0.39308093541783967	0.0	4.411391957902398	0.18881398461891577	0.0	4.397114957728045	0.21990193442233108	0.0	4.3706010448659525	0.4142294821614208	0.0	4.682062012340643	0.9437329941793615	0.0	4.717198295509579	0.49480807493668966	0.0	4.423648771762372	0.13590820704349232	0.0	4.584123975863524	-0.0012441383399671435	0.0	4.5675221123433944	0.028592414275309404	0.0	4.345554906424438	0.09617950700597114	0.0	4.9831422953609215	1.4370826076456862	0.0	5.193055047132046	1.5981561271243616	0.0	5.160555697023704	1.4761608023793293	0.0	4.924711082421415	1.425419825444691	0.0	4.633239691790416	1.291714864545878	0.0	4.505763654696803	1.0349103263000483	0.0	4.936696800597624	1.4049845883903218	0.0	4.779435066209309	1.148578296215635	0.0	4.846378390682522	0.946070697709998	0.0
327	2.725	4.717434066124679	0.9380003969242013	0.0	4.705625827855535	0.9391114370580607	0.0	4.948581852542445	0.5518699165032542	0.0	4.528414049138706	0.39021155494294796	0.0	4.508105086681621	0.18473795342124893	0.0	4.491575796931554	0.21332360493688057	0.0	4.450878833390605	0.4066808519944471	0.0	4.706212289628973	0.9428846542738253	0.0	4.726679167523358	0.4897088127308275	0.0	4.424209590340162	0.13722951322492638	0.0	4.580560609594108	-0.0028213149725442965	0.0	4.5637363448523205	0.028035309542642023	0.0	4.345459624798444	0.0983592387470559	0.0	5.017773539656123	1.434360248687356	0.0	5.226077355466538	1.6010665231231995	0.0	5.195370972247238	1.4768144576625504	0.0	4.960094193496225	1.4258811392903334	0.0	4.664289210670998	1.3067433205013734	0.0	4.506847509280588	1.058714022298333	0.0	4.975056497647889	1.4005644224289344	0.0	4.833870386475406	1.1369405735777123	0.0	4.9266912616944305	0.9458804417343116	0.0
